<svg width="18" height="22" viewBox="0 0 18 22" fill="none" xmlns="http://www.w3.org/2000/svg">
<path d="M6.17311 22C3.09415 21.9811 0.547302 15.2972 0.547302 11.8933C0.547302 6.33297 4.46969 5.11566 5.98134 5.11566C6.66258 5.11566 7.39001 5.40016 8.03161 5.65191C8.48028 5.82752 8.94429 6.00881 9.20237 6.00881C9.35684 6.00881 9.72085 5.85459 10.0422 5.71929C10.7276 5.42912 11.5805 5.06848 12.5737 5.06848C12.5755 5.06848 12.5779 5.06848 12.5796 5.06848C13.3212 5.06848 15.5698 5.24156 16.9216 7.40048L17.2383 7.90652L16.7826 8.27223C16.1315 8.79465 14.9436 9.74761 14.9436 11.6353C14.9436 13.871 16.2889 14.7308 16.9352 15.1443C17.2206 15.3268 17.5159 15.515 17.5159 15.9267C17.5159 16.1955 15.4987 21.9666 12.5695 21.9666C11.8528 21.9666 11.3461 21.7375 10.8992 21.5355C10.4471 21.3309 10.057 21.1547 9.41243 21.1547C9.08571 21.1547 8.67257 21.319 8.23517 21.4933C7.63745 21.7306 6.9609 22 6.19323 22H6.17311Z" fill="currentColor"/>
<path d="M12.884 0C12.9603 2.92514 10.9931 4.95447 9.02829 4.8272C8.70452 2.49283 10.9929 0 12.884 0Z" fill="currentColor"/>
</svg>
